<svg xmlns="http://www.w3.org/2000/svg" style="display: none;">
    <symbol id="icon-truck" viewBox="0 0 24 24" fill="none" xmlns="http://www.w3.org/2000/svg">
        <rect x="1" y="3" width="15" height="13" stroke="var(--icon-stroke)" stroke-miterlimit="10" stroke-linecap="square"/>
        <polygon points="16 8 20 8 23 11 23 16 16 16 16 8" stroke="var(--icon-stroke)" stroke-miterlimit="10" stroke-linecap="square"/>
        <circle cx="5.5" cy="18.5" r="2.5" stroke="var(--icon-stroke)" stroke-miterlimit="10" stroke-linecap="square"/>
        <circle cx="18.5" cy="18.5" r="2.5" stroke="var(--icon-stroke)" stroke-miterlimit="10" stroke-linecap="square"/>
    </symbol>
    <symbol id="icon-gear" viewBox="0 0 24 24" fill="none" xmlns="http://www.w3.org/2000/svg">
        <circle cx="12" cy="12" r="3" stroke="var(--icon-stroke)" stroke-miterlimit="10" stroke-linecap="square"/>
        <path d="M19.4 15a1.65 1.65 0 0 0 .33 1.82l.06.06a2 2 0 0 1 0 2.83 2 2 0 0 1-2.83 0l-.06-.06a1.65 1.65 0 0 0-1.82-.33 1.65 1.65 0 0 0-1 1.51V21a2 2 0 0 1-2 2 2 2 0 0 1-2-2v-.09A1.65 1.65 0 0 0 9 19.4a1.65 1.65 0 0 0-1.82.33l-.06.06a2 2 0 0 1-2.83 0 2 2 0 0 1 0-2.83l.06-.06a1.65 1.65 0 0 0 .33-1.82 1.65 1.65 0 0 0-1.51-1H3a2 2 0 0 1-2-2 2 2 0 0 1 2-2h.09A1.65 1.65 0 0 0 4.6 9a1.65 1.65 0 0 0-.33-1.82l-.06-.06a2 2 0 0 1 0-2.83 2 2 0 0 1 2.83 0l.06.06a1.65 1.65 0 0 0 1.82.33H9a1.65 1.65 0 0 0 1-1.51V3a2 2 0 0 1 2-2 2 2 0 0 1 2 2v.09a1.65 1.65 0 0 0 1 1.51 1.65 1.65 0 0 0 1.82-.33l.06-.06a2 2 0 0 1 2.83 0 2 2 0 0 1 0 2.83l-.06.06a1.65 1.65 0 0 0-.33 1.82V9a1.65 1.65 0 0 0 1.51 1H21a2 2 0 0 1 2 2 2 2 0 0 1-2 2h-.09a1.65 1.65 0 0 0-1.51 1z" stroke="var(--icon-stroke)" stroke-miterlimit="10" stroke-linecap="round" stroke-linejoin="round"/>
    </symbol>
    <symbol id="icon-fleet" viewBox="0 0 100 100">
        <defs>
            <symbol id="fleet" viewBox="0 0 24 24">
                <rect x="1" y="3" width="15" height="13" stroke="black" stroke-width="2" fill="white"/>
                <polygon points="16 8 20 8 23 11 23 16 16 16 16 8" stroke="black" stroke-width="2" fill="white"/>
                <circle cx="5.5" cy="18.5" r="2.5" stroke="black" stroke-width="2" fill="white"/>
                <circle cx="18.5" cy="18.5" r="2.5" stroke="black" stroke-width="2" fill="white"/>
            </symbol>
        </defs>
        
        <!-- Top right truck (back layer) -->
        <use href="#fleet" x="40" y="20" width="50" height="50"/>
        
        <!-- Middle truck (middle layer) -->
        <use href="#fleet" x="20" y="40" width="50" height="50"/>
        
        <!-- Bottom left truck (front layer) -->
        <use href="#fleet" x="0" y="60" width="50" height="50"/>
    </symbol>
    <symbol id="smartphone" viewBox="0 0 24 24" fill="none" xmlns="http://www.w3.org/2000/svg">
        <rect x="5" y="2" width="14" height="20" rx="2" ry="2" stroke="var(--icon-stroke)" stroke-miterlimit="10" stroke-linecap="square"/>
        <line x1="12" y1="18" x2="12.01" y2="18" stroke="var(--icon-stroke)" stroke-miterlimit="10" stroke-linecap="square"/>
    </symbol>
</svg>