<svg xmlns="http://www.w3.org/2000/svg" style="display: none;">
    <symbol id="icon-truck" viewBox="0 0 24 24" fill="none" xmlns="http://www.w3.org/2000/svg">
        <rect x="1" y="3" width="15" height="13" stroke="var(--icon-stroke)" stroke-miterlimit="10" stroke-linecap="square"/>
        <polygon points="16 8 20 8 23 11 23 16 16 16 16 8" stroke="var(--icon-stroke)" stroke-miterlimit="10" stroke-linecap="square"/>
        <circle cx="5.5" cy="18.5" r="2.5" stroke="var(--icon-stroke)" stroke-miterlimit="10" stroke-linecap="square"/>
        <circle cx="18.5" cy="18.5" r="2.5" stroke="var(--icon-stroke)" stroke-miterlimit="10" stroke-linecap="square"/>
    </symbol>
    
    <symbol id="icon-gear" viewBox="0 0 24 24" fill="none" xmlns="http://www.w3.org/2000/svg">
        <circle cx="12" cy="12" r="3" stroke="var(--icon-stroke)" stroke-miterlimit="10" stroke-linecap="square"/>
        <path d="M19.4 15a1.65 1.65 0 0 0 .33 1.82l.06.06a2 2 0 0 1 0 2.83 2 2 0 0 1-2.83 0l-.06-.06a1.65 1.65 0 0 0-1.82-.33 1.65 1.65 0 0 0-1 1.51V21a2 2 0 0 1-2 2 2 2 0 0 1-2-2v-.09A1.65 1.65 0 0 0 9 19.4a1.65 1.65 0 0 0-1.82.33l-.06.06a2 2 0 0 1-2.83 0 2 2 0 0 1 0-2.83l.06-.06a1.65 1.65 0 0 0 .33-1.82 1.65 1.65 0 0 0-1.51-1H3a2 2 0 0 1-2-2 2 2 0 0 1 2-2h.09A1.65 1.65 0 0 0 4.6 9a1.65 1.65 0 0 0-.33-1.82l-.06-.06a2 2 0 0 1 0-2.83 2 2 0 0 1 2.83 0l.06.06a1.65 1.65 0 0 0 1.82.33H9a1.65 1.65 0 0 0 1-1.51V3a2 2 0 0 1 2-2 2 2 0 0 1 2 2v.09a1.65 1.65 0 0 0 1 1.51 1.65 1.65 0 0 0 1.82-.33l.06-.06a2 2 0 0 1 2.83 0 2 2 0 0 1 0 2.83l-.06.06a1.65 1.65 0 0 0-.33 1.82V9a1.65 1.65 0 0 0 1.51 1H21a2 2 0 0 1 2 2 2 2 0 0 1-2 2h-.09a1.65 1.65 0 0 0-1.51 1z" stroke="var(--icon-stroke)" stroke-miterlimit="10" stroke-linecap="round" stroke-linejoin="round"/>
    </symbol>
    
    <symbol id="icon-fleet" viewBox="0 0 810 810">
        <rect x="382.284126" y="0.00002" width="267.857485" height="232.562487" stroke="#000000" stroke-width="17.812499" fill="none" stroke-miterlimit="10" stroke-linecap="square"/>
        <path d="M 667.284126 142.499979 L 738.284126 142.499979 L 791.284126 195.499979 L 791.284126 284.999979 L 667.284126 284.999979 Z" stroke="#000000" stroke-width="17.812499" fill="none" stroke-miterlimit="10" stroke-linecap="square"/>
        <circle cx="480.5" cy="329.500058" r="44.53125" stroke="#000000" stroke-width="17.812499" fill="none" stroke-miterlimit="10" stroke-linecap="square"/>
        <circle cx="711.5" cy="329.500058" r="44.53125" stroke="#000000" stroke-width="17.812499" fill="none" stroke-miterlimit="10" stroke-linecap="square"/>
        
        <rect x="191.142063" y="191.14208" width="267.857485" height="232.562487" stroke="#000000" stroke-width="17.812499" fill="none" stroke-miterlimit="10" stroke-linecap="square"/>
        <path d="M 476.142063 333.641916 L 547.142063 333.641916 L 600.142063 386.641916 L 600.142063 476.141916 L 476.142063 476.141916 Z" stroke="#000000" stroke-width="17.812499" fill="none" stroke-miterlimit="10" stroke-linecap="square"/>
        <circle cx="289.35794" cy="520.641995" r="44.53125" stroke="#000000" stroke-width="17.812499" fill="none" stroke-miterlimit="10" stroke-linecap="square"/>
        <circle cx="520.35794" cy="520.641995" r="44.53125" stroke="#000000" stroke-width="17.812499" fill="none" stroke-miterlimit="10" stroke-linecap="square"/>
        
        <rect x="0.0000035" y="382.284142" width="267.857485" height="232.562487" stroke="#000000" stroke-width="17.812499" fill="none" stroke-miterlimit="10" stroke-linecap="square"/>
        <path d="M 285.000004 524.784081 L 356.000004 524.784081 L 409.000004 577.784081 L 409.000004 667.284081 L 285.000004 667.284081 Z" stroke="#000000" stroke-width="17.812499" fill="none" stroke-miterlimit="10" stroke-linecap="square"/>
        <circle cx="98.215881" cy="711.78416" r="44.53125" stroke="#000000" stroke-width="17.812499" fill="none" stroke-miterlimit="10" stroke-linecap="square"/>
        <circle cx="329.215881" cy="711.78416" r="44.53125" stroke="#000000" stroke-width="17.812499" fill="none" stroke-miterlimit="10" stroke-linecap="square"/>
    </symbol>
    
    <symbol id="icon-smartphone" viewBox="0 0 24 24" fill="none" xmlns="http://www.w3.org/2000/svg">
        <rect x="5" y="2" width="14" height="20" rx="2" ry="2" stroke="var(--icon-stroke)" stroke-miterlimit="10" stroke-linecap="square"/>
        <line x1="12" y1="18" x2="12.01" y2="18" stroke="var(--icon-stroke)" stroke-miterlimit="10" stroke-linecap="square"/>
    </symbol>

    <symbol id="icon-camera" viewBox="0 0 24 24" fill="none" xmlns="http://www.w3.org/2000/svg">
        <path d="M23 19a2 2 0 0 1-2 2H3a2 2 0 0 1-2-2V8a2 2 0 0 1 2-2h4l2-3h6l2 3h4a2 2 0 0 1 2 2z" stroke="var(--icon-stroke)" stroke-miterlimit="10" stroke-linecap="square"/>
        <circle cx="12" cy="13" r="4" stroke="var(--icon-stroke)" stroke-miterlimit="10" stroke-linecap="square"/>
    </symbol>
    <symbol id="icon-toll" viewBox="0 0 2048 2048" fill="none" xmlns="http://www.w3.org/2000/svg">
    <path d="M768 1920h128v128H0V0h1024v384H768v920l1085-542l185 371l-1270 635z" stroke="var(--icon-stroke)" stroke-miterlimit="10" stroke-linecap="square"/>
    <path d="M768 1624l256-128v-176l-256 128z" stroke="var(--icon-stroke)" stroke-miterlimit="10" stroke-linecap="square"/>
    <path d="M1152 1432l256-128v-176l-256 128z" stroke="var(--icon-stroke)" stroke-miterlimit="10" stroke-linecap="square"/>
    <path d="M1795 934l-259 130v176l330-165z" stroke="var(--icon-stroke)" stroke-miterlimit="10" stroke-linecap="square"/>
    <path d="M640 1280V640H384v640z" stroke="var(--icon-stroke)" stroke-miterlimit="10" stroke-linecap="square"/>
    <path d="M128 256h768V128H128z" stroke="var(--icon-stroke)" stroke-miterlimit="10" stroke-linecap="square"/>
    <path d="M640 1920v-512H256V512h384V384H128v1536z" stroke="var(--icon-stroke)" stroke-miterlimit="10" stroke-linecap="square"/>
</symbol>
<symbol id="icon-road" viewBox="0 0 512 512" fill="none" xmlns="http://www.w3.org/2000/svg">
    <path d="M168.4 29.55L24.38 477.6l15.24 4.8L183.6 34.45" stroke="var(--icon-stroke)" stroke-miterlimit="10" stroke-linecap="square"/>
    <path d="M343.6 29.55l-15.2 4.9l144 447.95l15.2-4.8" stroke="var(--icon-stroke)" stroke-miterlimit="10" stroke-linecap="square"/>
    <path d="M248 32l-.8 20h17.6l-.8-20" stroke="var(--icon-stroke)" stroke-miterlimit="10" stroke-linecap="square"/>
    <path d="M246.6 68l-.8 20h20.4l-.8-20" stroke="var(--icon-stroke)" stroke-miterlimit="10" stroke-linecap="square"/>
    <path d="M245.1 104l-1.3 32h24.4l-1.3-32" stroke="var(--icon-stroke)" stroke-miterlimit="10" stroke-linecap="square"/>
    <path d="M243.2 152l-2 48h29.6l-2-48" stroke="var(--icon-stroke)" stroke-miterlimit="10" stroke-linecap="square"/>
    <path d="M240.4 220l-2.4 60h36l-2.4-60" stroke="var(--icon-stroke)" stroke-miterlimit="10" stroke-linecap="square"/>
    <path d="M237.1 304l-2.9 72h43.6l-2.9-72" stroke="var(--icon-stroke)" stroke-miterlimit="10" stroke-linecap="square"/>
    <path d="M233.1 404l-3.1 76h52l-3.1-76" stroke="var(--icon-stroke)" stroke-miterlimit="10" stroke-linecap="square"/>
</symbol>
</svg>